<?xml version="1.0" encoding="utf-8"?>
<!-- Generator: Adobe Illustrator 27.3.1, SVG Export Plug-In . SVG Version: 6.00 Build 0)  -->
<svg version="1.1" id="Layer_1" xmlns="http://www.w3.org/2000/svg" xmlns:xlink="http://www.w3.org/1999/xlink" x="0px" y="0px"
	 viewBox="0 0 1920 1080" style="enable-background:new 0 0 1920 1080;" xml:space="preserve">
<g>
	<path d="M1902.81,797.81c-2.75-18.31-3.2-37.37-8.83-54.75c-13.15-40.59-40.86-72.68-66.97-105.43
		c-12.95-16.24-12.58-15.75-4.8-32.58c6.23-13.48,15.67-8.04,24.05-5.15c8.54,2.94,3.35,9.61,2.09,14.96
		c-0.32,1.36-0.05,2.86-0.05,4.92c11.57-1.53,12.63-10.67,12.89-17.81c0.36-9.63-3.27-18.75-13.4-23.1
		c-20.67-8.88-42.86,4.86-45.06,27.45c-2.33,23.96,10.93,43.04,19.36,63.63c1.5,3.66,6.46,6.57,6.66,10.01
		c1.32,22.57,3.55,45.32,1.88,67.74c-1.16,15.57-3.63,34.95-13.36,45.2c-22.27,23.46-51.19,38.97-81.88,50.89
		c-31.52,12.25-64.55,13.57-97.34,15.77c-50.68,3.4-101.48,5.31-152.26,7.02c-59.6,2.01-119.23,3.66-178.86,4.48
		c-63.25,0.86-126.51,0.66-189.76,0.51c-2.2-0.01-4.4-0.76-6.53-1.7c-5.3,0.1-10.53,0.45-15.78,0.72c-1.75,0.78-3.64,1.63-5.75,2.58
		c-0.06-0.73-0.12-1.43-0.17-2.15c-2.7,0.19-5.41,0.28-8.13,0.2v0.7H945.89V764.6c-5.32,1.55-8.61,2.51-12.55,3.65
		c0,4.56,0.01,8.9,0,13.23c-0.05,26.23-0.39,52.46-0.02,78.68c0.15,10.69-3.72,14.74-14.67,14.38c-20.62-0.68-41.28-0.2-61.8-0.2
		c-0.06-0.49-0.11-0.95-0.17-1.42c-3.72,0.59-7.37,0.73-11.11,0.58c-1.39,0.54-3.15,0.8-5.44,0.76
		c-17.18-0.34-34.39,0.68-51.55,0.12c-30.82-1.01-61.6-3.41-92.43-4c-22.58-0.43-45.21,1.66-67.81,1.66
		c-27.42,0-54.84-0.95-82.25-1.82c-0.92-0.03-6.33,1.54-5.89-1.27c-6.5,0.55-13.04,0.84-19.67,0.88c-1.73,0.01-3.25-0.29-4.59-0.82
		c-31.94,2.42-63.88-5.89-97.06-4.42c0-0.01,0.01-0.01,0.01-0.02c-2.58,0.17-5.19,0.09-7.79,0.04c-1.36-0.03-2.58-0.26-3.7-0.63
		c-10.75,0.16-21.82,0.88-32.19-1.92c-3.8,0.59-7.82,0.52-11.99-0.09c-38-5.58-75.89-12.02-113.94-17.2
		c-37.1-5.05-69.66-23.33-104.65-34.48c-3.4-1.08-7.17-3.92-8.84-6.98c-5.29-9.73-11.97-19.53-13.9-30.07
		c-3.89-21.27-7.65-43.2-6.49-64.58c1.13-20.8-4.24-43.05,10.34-62.64c6.5-8.73,9.44-20.92,11.38-31.99
		c1.91-10.92,2.71-22.95,0.16-33.57c-6.76-28.1-43.17-39.16-63.13-20.08c-7.56,7.23-10.29,16.54-6.16,26.07
		c3.48,8.04,7.02,17.79,20.68,16.51c-5.95-8.58-13.65-16.86,0.88-22.81c5.07-2.08,11.64-6.78,15.06-5.14
		c5.06,2.42,8.36,9.17,11.56,14.58c1.63,2.75,1.72,6.58,1.95,9.96c0.25,3.69,1.26,8.34-0.48,10.97
		c-6.32,9.54-13.59,18.46-20.62,27.52c-22.25,28.65-46.73,55.82-61.92,89.27c-6.81,14.99-16.14,30.15-17.78,45.91
		c-4.2,40.4-3.94,80.43,15.22,118.95c18.19,36.55,43.68,65.11,77.57,86.78c7.61,4.87,16.26,8.13,24.51,11.98
		c17.13,8,33.59,19.15,51.63,23.16c35.84,7.98,72.38,14.02,108.96,17.17c49.85,4.29,99.97,6.07,150.01,7.2
		c56,1.27,112.05,0.57,168.08,0.82c68.25,0.31,136.51,1.26,204.76,0.91c47.3-0.24,94.6-2.24,141.9-3.36
		c61.58-1.45,123.17-2.85,184.76-4.19c60.4-1.32,120.81-2.27,181.2-3.88c67.98-1.82,135.96-4.02,203.93-6.4
		c34.49-1.21,69.07-1.91,103.39-5.19c30.76-2.94,61.07-10.8,91.84-13.41c40.8-3.46,75.29-20.6,106.85-44.42
		c25.27-19.07,46.4-43.1,57.09-73.01C1899.05,858.17,1907.47,828.74,1902.81,797.81z"/>
	<path d="M1244.42,423.57c-4.08-10.29-9.1-20.25-12.76-30.68c-6.93-19.74-11.97-40.22-20.02-59.47
		c-11.42-27.33-25.83-53.43-37.01-80.85c-5.82-14.27-15.14-18.06-28.59-17.66c-4.77,0.14-9.57,0.25-14.32-0.16
		c-2.21-0.19-4.32-1.65-6.47-2.53c29.94-0.03,59.3,4.37,88.91,1.78c-2.33-2.86-4.78-4-7.33-4.32c-24.84-3.09-49.67-6.25-74.55-8.95
		c-8.23-0.9-16.34-1.82-23.39-5.42c-1.37,0.16-3.57,0.4-3.61,0.44c-0.75,0.01-1.5-0.03-2.24-0.12c0.17,0.2,0.32,0.39,0.5,0.6
		c-55.56-6.26-108.48-12.23-162.8-18.35c0-20.62-0.31-40.39,0.08-60.14c0.42-21.29,2.24-42.58,1.98-63.85
		c-0.14-11.52-3.35-23-5.17-34.5c-1.47,0.13-2.94,0.26-4.41,0.39c0,19.16,0.56,38.34-0.2,57.46c-0.5,12.52-2.93,24.97-4.49,37.45
		c2.18,20.03,4.36,40.05,6.78,62.33c-16.92-1.49-30.07-2.64-43.58-3.82v-0.49c-0.42-0.1-0.85-0.19-1.25-0.33
		c-2.59,0.34-5.22,0.11-7.69-0.68c-2.92,0.46-6.13,0.12-9.43-0.28c-19.3-2.36-38.62-4.66-57.97-6.54
		c-55.3-5.39-110.61-10.57-165.92-15.81c-26.04-2.47-52.07-5.02-78.13-7.13c-2.75-0.22-5.72,2.32-8.59,3.58
		c2.61,2.23,4.99,6.02,7.86,6.44c16.07,2.33,32.23,4.01,48.4,5.62c25.82,2.57,51.7,4.68,77.5,7.41c26.92,2.85,53.8,6.13,80.67,9.36
		c17.91,2.15,35.79,4.56,53.7,6.81c15.94,2,31.85,4.31,47.84,5.78c12.48,1.14,25.11,0.76,37.59,1.92
		c5.84,0.54,11.49,3.14,17.23,4.81c-0.38,1.52-0.76,3.04-1.14,4.56c-13.1-2.47-26.21-4.94-41.64-7.85
		c120.77,156.07,170.76,332.72,174.24,523.87c33.67-5.01,66.42-9.88,101.26-15.07c-2.7-31.35-4.96-63.14-8.3-94.81
		c-3.53-33.47-6.06-67.24-12.6-100.17c-15.04-75.8-45.54-145.57-88.41-209.88c-18.61-27.92-38.46-55.07-56.04-83.61
		c-6.14-9.97-12.07-10.33-21.86-9.47c-11.52,1.02-23.29-0.44-34.9-1.36c-1.35-0.11-2.44-3.61-5.21-8.02
		c62.71,5.84,122.43,11.4,182.14,16.95c-0.12,1.26-0.24,2.52-0.36,3.78c-10.53-0.84-21.06-1.69-33.2-2.66
		c15.69,25.92,31.05,49.03,44.09,73.39c16.91,31.56,33.97,63.29,47.36,96.4c19.85,49.11,26.15,101.37,26.34,154.06
		c0.1,28.25-2.83,56.52-4.47,84.77c-1.55,26.74-3.25,53.48-4.76,80.22c-0.55,9.75-3.12,20.22-0.48,29.09
		c1.77,5.94,1.94,9.98-0.13,12.84c2.51-0.18,4.98-0.53,7.53-1.6c0.53-0.22,1.04-0.48,1.54-0.76c-0.28-0.08-0.55-0.15-0.84-0.23
		c4.77-16.94,8.09-33.98,14.33-49.89c15.59-39.75,30.47-79.42,37.15-122.04C1263.86,530.93,1265.46,476.61,1244.42,423.57z"/>
	<path d="M900.04,776.16c-62.9,9.55-126.28,13.32-183.93,42.5c-0.82-0.96-1.64-1.93-2.46-2.89c3.91-9.94,6.99-20.31,11.89-29.75
		c14.98-28.85,16.18-60.4,17.58-91.54c1.56-34.84,0.49-69.81,0.49-104.72c-0.01-71.11-8.85-141.31-20-211.44
		c-10.34-65.1-37.97-122.47-72.7-177.26c-2.51-3.96-4.92-8-8.43-13.73c9.96,0.85,18.59,1.61,27.24,2.32
		c19.18,1.57,38.38,2.96,57.54,4.72c14.81,1.36,29.61,2.87,44.31,5.03c2.74,0.4,5.7,3.78,7.34,6.51
		c39.08,65.26,73.04,132.66,90.52,207.45c9.3,39.78,17.27,79.57,18.73,120.54c2.07,58.09,4.52,116.16,7.17,174.23
		C896.33,730.19,898.35,752.21,900.04,776.16z"/>
</g>
</svg>
